<svg width="112" height="112" viewBox="0 0 112 112" fill="none" xmlns="http://www.w3.org/2000/svg">
<path d="M40 64H56V72H64V80H88V88H80V96H72V104H56V96H40V88H32V80H8V72H16V64H24V56H40V64Z" fill="#3F4D5A"/>
<path d="M8 88H0V80H8V88Z" fill="#3F4D5A"/>
<path d="M96 80H88V72H96V80Z" fill="#3F4D5A"/>
<path d="M56 16H72V24H80V32H104V40H96V48H88V56H72V48H56V40H48V32H24V24H32V16H40V8H56V16Z" fill="#3F4D5A"/>
<path d="M24 40H16V32H24V40Z" fill="#3F4D5A"/>
<path d="M112 32H104V24H112V32Z" fill="#3F4D5A"/>
</svg>
