<svg width="160" height="160" viewBox="0 0 160 160" fill="none" xmlns="http://www.w3.org/2000/svg">
<g clip-path="url(#clip0_40000005_41535)">
<g clip-path="url(#clip1_40000005_41535)">
<path d="M8 8H152V152H8V8Z" fill="#141414"/>
<path fill-rule="evenodd" clip-rule="evenodd" d="M16 0H24H120H128H136H144V8L136 8H128L120 7.99999L24 8H16V0ZM8 16V8H16V16H8ZM8 144H0V136L1.25889e-05 24L0 16H8V24L8 136V144ZM16 152L16 144H8L8 152H16ZM24 152H16V160L24 160L120 160H128H136H144V152H152V144H160L160 136L160 24V16H152V8L144 8V16H152V24V136V144H144V152H136H128H120H24Z" fill="#00FC19"/>
</g>
<path d="M64 88H80V96H88V104H112V112H104V120H96V128H80V120H64V112H56V104H32V96H40V88H48V80H64V88Z" fill="#00FC19"/>
<path d="M32 112H24V104H32V112Z" fill="#00FC19"/>
<path d="M120 104H112V96H120V104Z" fill="#00FC19"/>
<path d="M80 40H96V48H104V56H128V64H120V72H112V80H96V72H80V64H72V56H48V48H56V40H64V32H80V40Z" fill="#00FC19"/>
<path d="M48 64H40V56H48V64Z" fill="#00FC19"/>
<path d="M136 56H128V48H136V56Z" fill="#00FC19"/>
</g>
<defs>
<clipPath id="clip0_40000005_41535">
<rect width="160" height="160" fill="white"/>
</clipPath>
<clipPath id="clip1_40000005_41535">
<rect width="160" height="160" fill="white"/>
</clipPath>
</defs>
</svg>
